<svg width="66" height="89" viewBox="0 0 66 89" fill="none" xmlns="http://www.w3.org/2000/svg">
<path d="M33.1172 24.5082H47.6172C48.422 32.0429 47.6172 35.5082 40.569 38.0083C33.5208 40.5084 24.1167 46.0082 24.1167 46.0082C24.7561 40.7752 24.0922 38.4184 20.6167 35.5082C20.6167 35.5082 19.5426 38.0082 18.1172 40.0082C16.6918 42.0082 13.5693 40.0082 10.6167 42.0082C7.66404 44.0082 4.53024 47.0321 4.11716 51.5082C3.73065 55.6965 15.0693 53.0082 8.11716 61.5082C1.16501 70.0082 -0.430687 75.5082 1.11667 82.5082C2.66404 89.5082 12.1162 91.0082 15.1167 86.0082C18.1172 81.0082 17.165 78.5082 18.1172 69.5082C19.0693 60.5082 28.1644 58.5082 38.6167 58.5082C49.069 58.5082 58.569 52.5083 61.569 45.0083C64.569 37.5083 66.2583 31.0224 64.1167 23.5082C59.5298 7.41455 45.2834 -0.205947 28.5502 0.00422933C18.2892 0.133111 11.2556 1.38394 5.05017 9.00423C-0.510615 15.8329 -0.128164 22.175 0.117162 31.0082L4.11716 26.5082C5.02904 36.0017 4.41528 37.1099 9.11716 37.5082C12.9792 37.8354 15.4296 34.5057 16.6172 31.0082L8.11716 33.5082C7.37478 23.3515 7.13352 17.7737 18.1172 15.5082C26.7077 14.6057 29.881 16.7557 33.1172 24.5082Z" fill="#D5A227"/>
</svg>
